Coordinates
version=1
nRows=13
nColumns=36
inDegrees=yes

Units are S.I. units (second, meters, Newtons, ...)
If the header above contains a line with 'inDegrees', this indicates whether rotational values are in degrees (yes) or radians (no).

endheader
time	pelvis_tilt	pelvis_list	pelvis_rotation	pelvis_tx	pelvis_ty	pelvis_tz	hip_flexion_r	hip_adduction_r	hip_rotation_r	knee_angle_r	knee_angle_r_beta	ankle_angle_r	subtalar_angle_r	mtp_angle_r	hip_flexion_l	hip_adduction_l	hip_rotation_l	knee_angle_l	knee_angle_l_beta	ankle_angle_l	subtalar_angle_l	mtp_angle_l	lumbar_extension	lumbar_bending	lumbar_rotation	arm_flex_r	arm_add_r	arm_rot_r	elbow_flex_r	pro_sup_r	arm_flex_l	arm_add_l	arm_rot_l	elbow_flex_l	pro_sup_l
      1.98000000	     -4.52197682	     -0.05794658	      1.58286490	      0.24748193	      0.91664360	     -0.04680273	      0.28584933	     -4.87790985	      0.03304327	      0.49870896	      0.00870411	      6.96559918	    -19.48107284	     -7.49999987	      3.63091216	     -6.28610647	      1.90759957	      1.55223744	      0.02709165	      4.63736481	    -11.00596368	     -7.49999987	     -8.87904572	     -1.36137788	      1.21204050	     14.07815409	    -11.70021567	     43.23627146	     32.65714086	     67.50853476	     14.49861846	     -8.85120996	     55.08711710	     23.96386809	     45.79003429
      1.98166670	     -4.42211590	     -0.06610994	      1.60550921	      0.24736703	      0.91569402	     -0.04982467	      0.14987167	     -4.89949391	      0.06298786	      0.50203527	      0.00876217	      6.90731427	    -19.49432022	     -7.49999987	      3.49498066	     -6.26408060	      1.89708862	      1.53151486	      0.02672998	      4.59248839	    -10.99625608	     -7.49999987	     -8.80579896	     -1.29657428	      1.22111303	     13.77991478	    -11.64829256	     43.24655708	     32.48148678	     67.54949460	     14.29299862	     -8.88288572	     55.04587625	     23.88157680	     45.68378601
      1.98333330	     -4.20697384	     -0.06874329	      1.59071675	      0.24813837	      0.91784111	     -0.04949567	     -0.09191608	     -4.91121443	      0.14871576	      0.49061407	      0.00856283	      6.84444726	    -19.64823785	     -7.49999987	      3.17908275	     -6.24458152	      1.79508344	      1.45326324	      0.02536423	      4.54544797	    -10.98776697	     -7.49999987	     -8.85309655	     -1.27011805	      1.29196955	     13.56902475	    -11.35753052	     42.93570475	     31.74647312	     67.72358414	     14.02878041	     -8.75110662	     54.56884128	     23.55083624	     45.05953572
      1.98500000	     -4.04957343	     -0.05896754	      1.64546129	      0.24884765	      0.92013262	     -0.04932895	     -0.28296813	     -4.95761696	      0.10292136	      0.49539819	      0.00864633	      6.89380729	    -19.36302068	     -7.49999987	      2.95251576	     -6.20224634	      1.77109328	      1.40619026	      0.02454265	      4.49564796	    -10.87347396	     -7.49999987	     -8.82842035	     -1.20919979	      1.21870007	     13.20370813	    -11.22752622	     42.47725680	     31.55664332	     67.53700293	     13.70171695	     -8.76087820	     53.55162303	     23.52853203	     45.11065941
      1.98666670	     -3.93624440	     -0.05640247	      1.67386643	      0.24988353	      0.91913056	     -0.04998423	     -0.40222708	     -4.99569255	      0.09816411	      0.52330237	      0.00913335	      6.84261209	    -19.35416931	     -7.49999987	      2.81610469	     -6.17883519	      1.71747355	      1.44570453	      0.02523230	      4.45332832	    -10.87320804	     -7.49999987	     -8.79212061	     -1.15326645	      1.20763518	     12.86586261	    -11.18854009	     42.50529388	     31.48811455	     67.55236207	     13.47755305	     -8.82775680	     53.53626433	     23.47244386	     45.08023446
      1.98833330	     -3.75277149	     -0.02842274	      1.69489491	      0.24994334	      0.91495033	     -0.04999263	     -0.66069642	     -5.03789326	      0.06368134	      0.49917677	      0.00871228	      6.78538580	    -19.42954834	     -7.49999987	      2.49157347	     -6.13640163	      1.64623190	      1.35180062	      0.02359337	      4.46963190	    -10.92931693	     -7.49999987	     -8.59703881	     -1.15172351	      1.24032823	     12.49486741	    -11.09203007	     42.46072763	     31.31015024	     67.58620235	     13.17550328	     -8.86251571	     53.42879643	     23.30996641	     44.98087092
      1.99000000	     -3.52894739	     -0.00568110	      1.67312602	      0.25066709	      0.91875468	     -0.05037415	     -0.94668062	     -5.07833607	      0.01849147	      0.49936753	      0.00871561	      6.71699884	    -19.39262220	     -7.49999987	      2.13937035	     -6.09150215	      1.46285603	      1.26785390	      0.02212822	      4.42035802	    -10.77213944	     -7.49999987	     -8.58278648	     -1.15988337	      1.32247350	     12.13289272	    -10.81575757	     41.71619190	     30.78904081	     67.43965908	     12.85791792	     -8.72909962	     52.31768909	     22.96862777	     44.96444212
      1.99166670	     -3.39144275	     -0.00579317	      1.69400200	      0.25202648	      0.91946802	     -0.05106353	     -1.11471338	     -5.11580010	     -0.00390785	      0.52851387	      0.00922431	      6.69289486	    -19.40134360	     -7.49999987	      1.95223016	     -6.06769719	      1.45757302	      1.29548155	      0.02261042	      4.44022469	    -10.78433022	     -7.49999987	     -8.48930493	     -1.09038157	      1.33366438	     11.78434435	    -10.74250588	     41.69766576	     30.72282821	     67.45519339	     12.56739231	     -8.78100654	     52.24426948	     22.90984833	     44.92790486
      1.99333330	     -3.13841467	      0.02019483	      1.71631991	      0.25299099	      0.92034455	     -0.05160652	     -1.46956968	     -5.17300293	     -0.12366925	      0.49847268	      0.00869999	      6.71862904	    -19.26697002	     -7.49999987	      1.51964879	     -6.01497526	      1.43679596	      1.13335315	      0.01978074	      4.53264211	    -10.58468979	     -7.49999987	     -8.51288521	     -1.03782197	      1.08772936	     11.26714510	    -10.19069505	     38.67993598	     30.41407532	     71.44127212	     11.61352639	     -8.49448598	     47.39455034	     23.14806405	     44.84892080
      1.99500000	     -2.97669903	      0.01852892	      1.70227762	      0.25274540	      0.91808515	     -0.05027555	     -1.67828887	     -5.17779315	     -0.23411245	      0.50132176	      0.00874972	      6.89960200	    -19.04432988	     -7.49999987	      1.25472743	     -6.00695045	      1.32693908	      1.07863717	      0.01882577	      4.56740201	    -10.61893190	     -7.49999987	     -8.34990701	     -1.01418944	      1.26384181	     10.92474450	     -9.99624306	     38.35955472	     29.93404729	     71.45482845	     11.41450055	     -8.40041704	     47.02643273	     22.80018256	     44.80614366
      1.99666670	     -2.82131860	      0.03360739	      1.74518369	      0.25440611	      0.91672346	     -0.05139051	     -1.89748616	     -5.20261768	     -0.26689570	      0.52871517	      0.00922782	      6.90241737	    -19.10641823	     -7.49999987	      1.04922164	     -5.99283643	      1.28387606	      1.10573438	      0.01929871	      4.59660953	    -10.66788178	     -7.49999987	     -8.21463776	     -0.96245032	      1.28250317	     10.55360195	     -9.91055402	     38.34574232	     29.87088533	     71.45735663	     11.13776325	     -8.46082816	     46.97098190	     22.74326140	     44.80164177
      1.99833330	     -2.60356246	      0.06073474	      1.77337020	      0.25604397	      0.91885055	     -0.05117473	     -2.24805608	     -5.22998918	     -0.29300089	      0.50242280	      0.00876893	      6.96875654	    -18.98263629	     -7.49999987	      0.67853765	     -5.97566678	      1.21385671	      0.98346708	      0.01716474	      4.68637106	    -10.58498178	     -7.49999987	     -8.05158073	     -0.94732488	      1.35260073	     10.09239220	     -9.50196442	     37.17663796	     29.33296272	     70.71980035	     10.75738405	     -8.25632707	     45.27686556	     22.35054661	     45.56371312
      2.00000000	     -2.45577320	      0.08559139	      1.85280913	      0.25743316	      0.91996264	     -0.05261031	     -2.51944803	     -5.26512840	     -0.23497684	      0.50226980	      0.00876626	      6.79389193	    -19.19296199	     -7.49999987	      0.40235422	     -5.92858961	      1.30961550	      0.93025116	      0.01623595	      4.65988141	    -10.73136246	     -7.49999987	     -7.89247102	     -0.90828444	      1.25558813	      9.51358410	     -9.23224932	     35.73334129	     29.38144441	     70.64588782	     10.02216403	     -8.19321296	     42.24972073	     22.72191378	     46.69125728
